<svg xmlns="http://www.w3.org/2000/svg" width="200" height="200" viewBox="0 0 24 24">
  <g transform="translate(7,7) scale(0.4)">
    <path d="M9.78,18.11C9.78,19.33 10.78,20.33 12,20.33C13.22,20.33 14.22,19.33 14.22,18.11"
          fill="none" stroke="#00E676" stroke-width="1.5" stroke-linecap="round" stroke-linejoin="round"/>
    <path d="M9.78,14.22C9.78,13 8.78,12 7.56,12C6.34,12 5.34,13 5.34,14.22"
          fill="none" stroke="#00BFA5" stroke-width="1.5" stroke-linecap="round" stroke-linejoin="round"/>
    <path d="M18.67,14.22C18.67,13 17.67,12 16.451,12C15.231,12 14.231,13 14.231,14.22"
          fill="none" stroke="#00BFA5" stroke-width="1.5" stroke-linecap="round" stroke-linejoin="round"/>
    <path d="M2,18.11C2,20.22 3.78,22 5.89,22C8,22 9.78,20.22 9.78,18.11"
          fill="none" stroke="#00E676" stroke-width="1.5" stroke-linecap="round" stroke-linejoin="round"/>
    <path d="M14.22,18.11C14.22,20.22 16,22 18.11,22C20.22,22 22,20.22 22,18.11"
          fill="none" stroke="#00E676" stroke-width="1.5" stroke-linecap="round" stroke-linejoin="round"/>
    <path d="M2,9.56C4.89,7.56 8.33,6.45 12,6.45C15.67,6.45 19.11,7.56 22,9.56"
          fill="none" stroke="#00BFA5" stroke-width="1.5" stroke-linecap="round" stroke-linejoin="round"/>
    <path d="M18.67,7.78V2"
          fill="none" stroke="#00E676" stroke-width="1.5" stroke-linecap="round" stroke-linejoin="round"/>
    <path d="M5.33,7.78V2"
          fill="none" stroke="#00E676" stroke-width="1.5" stroke-linecap="round" stroke-linejoin="round"/>
  </g>
</svg>
